# xmcd
#
# Track frame offsets: 
#        150
#        16855
#        28817
#        43926
#        60118
#        77571
#        91241
#        101933
#        110892
#        128680
#        145117
#        161438
#        175078
#
# Disc length: 2495 seconds
#
# Revision: 1
# Processed by: cddbd v1.5.2PL0 Copyright (c) Steve Scherf et al.
# Submitted via: ExactAudioCopy v1.1
#
DISCID=a109bd0d
DTITLE=Marshall Laurence - Blues Intervention
DYEAR=2010
DGENRE=Blues
TTITLE0=So Long Rosalee
TTITLE1=Traveling Blues
TTITLE2=You're Gonna Find the Blues
TTITLE3=Lay Down My Sorrow
TTITLE4=If I Had a Nickel
TTITLE5=Your Woman Quit You
TTITLE6=Going Down to Louisiana
TTITLE7=Going to the River
TTITLE8=Detroit "Motor City" Blues
TTITLE9=Love Like Heroin
TTITLE10=Once Loved a Cowgirl
TTITLE11=Walking Blues
TTITLE12=Going Down the Road Feeling Bad
EXTD=
EXTT0=
EXTT1=
EXTT2=
EXTT3=
EXTT4=
EXTT5=
EXTT6=
EXTT7=
EXTT8=
EXTT9=
EXTT10=
EXTT11=
EXTT12=
PLAYORDER=
